<?xml version="1.0" standalone="no"?>
<!DOCTYPE svg PUBLIC "-//W3C//DTD SVG 20010904//EN"
 "http://www.w3.org/TR/2001/REC-SVG-20010904/DTD/svg10.dtd">
<svg version="1.0" xmlns="http://www.w3.org/2000/svg"
 width="1261.000000pt" height="1261.000000pt" viewBox="0 0 1261.000000 1261.000000"
 preserveAspectRatio="xMidYMid meet">
<metadata>
Created by potrace 1.14, written by Peter Selinger 2001-2017
</metadata>
<g transform="translate(0.000000,1261.000000) scale(0.100000,-0.100000)"
fill="#000000" stroke="none">
<path d="M5094 10482 c-11 -4 -36 -25 -55 -47 -65 -76 -79 -83 -230 -109 -116
-20 -163 -41 -204 -89 -30 -34 -42 -41 -92 -49 -98 -15 -166 -53 -241 -133
-119 -128 -182 -241 -182 -330 0 -12 -14 -34 -31 -51 -46 -44 -126 -154 -147
-205 -20 -47 -49 -215 -39 -225 12 -12 -23 -64 -53 -79 -49 -25 -150 -192
-150 -248 0 -15 11 -54 25 -87 31 -75 31 -101 -2 -258 -36 -170 -35 -249 5
-374 35 -110 35 -107 -17 -358 -60 -283 -81 -573 -81 -1095 0 -198 5 -402 10
-454 15 -157 -16 -498 -46 -508 -6 -2 -19 16 -29 39 -59 135 -90 197 -129 256
-50 78 -108 139 -142 152 -13 5 -24 16 -24 25 0 37 -19 9 -34 -50 -17 -69 -22
-219 -6 -177 5 12 12 22 15 22 7 0 57 -32 65 -40 3 -3 21 -16 41 -28 60 -36
121 -127 139 -207 5 -22 16 -116 25 -210 9 -93 27 -215 40 -270 14 -55 32
-146 40 -202 9 -57 20 -115 25 -129 6 -14 11 -51 13 -81 2 -47 -1 -56 -23 -73
-72 -56 -164 1 -232 142 -18 37 -34 66 -35 64 -8 -8 48 -139 77 -181 17 -25
49 -57 70 -71 38 -25 42 -26 103 -15 138 24 178 9 197 -71 29 -124 163 -609
185 -668 78 -206 143 -338 244 -490 142 -214 302 -400 567 -660 343 -336 518
-470 767 -588 179 -86 460 -152 640 -152 166 0 422 46 589 106 236 85 680 376
1030 676 283 243 436 408 571 613 116 178 174 308 318 722 40 114 58 153 73
157 10 3 55 -7 99 -21 69 -21 86 -23 117 -14 55 16 123 95 175 203 53 109 60
144 9 46 -37 -72 -139 -186 -173 -193 -12 -2 -25 -6 -30 -9 -5 -3 -23 -1 -40
5 -37 13 -49 47 -33 98 25 85 80 227 137 356 27 62 64 184 84 280 27 132 48
211 66 249 36 75 122 151 189 166 35 8 36 7 42 -26 3 -19 10 -34 14 -34 13 0
32 191 25 255 -7 68 -18 97 -28 71 -3 -8 -23 -24 -45 -35 -56 -29 -146 -130
-236 -266 -66 -100 -80 -117 -87 -100 -21 54 0 344 29 402 25 49 56 199 82
393 40 299 119 1027 131 1193 25 367 -31 608 -188 813 -32 42 -64 84 -72 95
-11 15 -11 33 -2 94 22 153 8 265 -52 403 -107 247 -326 443 -726 648 -58 30
-157 90 -220 134 -358 251 -743 438 -1000 486 -60 11 -114 31 -185 66 -55 28
-134 61 -175 75 -109 36 -288 63 -417 63 -102 0 -118 3 -184 31 -164 69 -315
87 -420 48 -30 -11 -65 -23 -77 -26 -28 -7 -106 19 -208 69 -136 67 -202 85
-251 70z m176 -196 c0 -3 -4 -8 -10 -11 -5 -3 -10 -1 -10 4 0 6 5 11 10 11 6
0 10 -2 10 -4z m229 -109 c23 -22 68 -103 141 -252 103 -212 180 -374 180
-380 0 -1 23 -51 50 -109 28 -58 50 -109 50 -112 0 -5 39 -86 154 -324 30 -63
71 -142 91 -175 44 -75 123 -237 131 -270 7 -30 2 -30 -57 -2 -56 26 -109 87
-154 178 -19 36 -47 86 -63 110 -44 66 -352 696 -352 720 0 14 -32 73 -42 77
-5 2 -8 14 -8 26 0 12 -4 26 -8 32 -5 5 -28 56 -51 114 -23 58 -48 119 -56
135 -102 227 -137 314 -130 325 6 10 48 -21 124 -93z m-711 23 c17 -16 56 -66
89 -111 32 -45 65 -91 73 -102 8 -12 26 -33 40 -48 14 -15 41 -47 60 -71 19
-23 55 -64 80 -89 117 -122 118 -165 1 -98 -31 18 -114 91 -200 178 -163 164
-221 247 -221 317 0 22 3 44 7 47 14 15 43 6 71 -23z m1627 -197 c138 -133
252 -296 369 -527 81 -159 101 -203 146 -331 18 -49 36 -99 41 -110 33 -79 79
-317 79 -407 0 -59 0 -59 -27 -56 -29 3 -24 -11 -72 193 -42 179 -125 411
-209 585 -29 60 -37 70 -40 51 -2 -13 2 -27 9 -31 6 -4 14 -27 16 -51 4 -43 4
-43 -15 -25 -11 9 -30 43 -43 74 -12 31 -27 63 -33 71 -6 7 -24 41 -41 75 -17
33 -43 80 -58 103 -15 24 -27 49 -27 58 0 8 -7 15 -15 15 -8 0 -15 7 -15 16 0
19 -51 104 -62 104 -5 0 -8 8 -8 19 0 10 -8 29 -19 42 -10 13 -22 35 -26 49
l-7 25 21 -22 c12 -13 25 -23 30 -23 9 0 87 -108 115 -160 10 -19 25 -44 32
-55 13 -18 14 -18 14 -1 0 33 -223 368 -260 391 -6 4 -10 11 -10 16 0 14 44
-20 115 -88z m-973 -31 c-3 -9 -10 -3 -18 18 -19 44 -17 50 5 21 10 -14 16
-31 13 -39z m43 -70 c-8 -8 -25 10 -25 26 0 13 2 13 14 -4 8 -10 13 -21 11
-22z m1985 -433 c0 -11 -4 -18 -9 -14 -6 3 -9 14 -8 25 2 24 17 15 17 -11z
m57 -89 c6 -17 8 -30 3 -30 -11 0 -26 22 -32 47 -8 32 16 18 29 -17z m33 -64
c0 -18 24 -66 33 -66 4 0 7 -8 7 -17 0 -15 -2 -14 -18 3 -32 35 -58 115 -32
99 6 -3 10 -12 10 -19z m-3330 -320 c8 -7 26 -18 40 -24 14 -7 39 -21 55 -32
17 -11 44 -27 60 -35 36 -18 61 -34 94 -57 21 -16 21 -18 5 -18 -11 0 -28 7
-38 15 -11 8 -26 15 -34 15 -22 0 -219 100 -238 121 -9 10 -23 19 -30 19 -13
0 -74 65 -74 80 0 8 127 -59 160 -84z m3594 -26 l7 -25 -15 25 c-17 28 -21 50
-7 35 5 -6 12 -21 15 -35z m30 -105 l6 -40 -15 45 c-16 50 -19 73 -6 50 5 -8
12 -33 15 -55z m-3699 -130 c22 -14 56 -33 75 -44 30 -17 32 -20 12 -21 -21 0
-79 31 -131 71 -34 27 -3 23 44 -6z m990 -225 c139 -17 375 -52 605 -90 296
-48 441 -66 705 -86 428 -32 511 -31 1155 17 213 16 400 -2 574 -53 115 -34
173 -62 242 -115 27 -21 79 -61 117 -87 81 -57 163 -160 219 -271 67 -132 119
-316 122 -426 0 -37 4 -63 7 -57 3 5 6 -4 5 -20 -1 -17 -4 -28 -9 -25 -4 2 -6
-24 -4 -59 2 -35 -2 -79 -9 -98 -7 -19 -17 -96 -24 -170 -11 -135 -21 -195
-74 -475 -56 -290 -103 -823 -111 -1250 -7 -370 -19 -506 -57 -660 -32 -131
-98 -321 -128 -371 -11 -17 -26 -49 -34 -70 -12 -34 -88 -160 -106 -174 -3 -3
-23 -31 -43 -62 -21 -31 -42 -60 -47 -63 -6 -3 -10 -14 -10 -24 0 -10 -11 -28
-25 -41 -14 -13 -25 -29 -25 -37 0 -7 -7 -13 -15 -13 -8 0 -15 -4 -15 -9 0
-14 -81 -151 -89 -151 -4 0 -16 -18 -27 -40 -10 -22 -25 -40 -31 -40 -7 0 -13
-9 -13 -20 0 -11 -4 -20 -9 -20 -5 0 -19 -15 -30 -34 -49 -79 -518 -535 -696
-676 -22 -18 -42 -35 -45 -39 -15 -21 -156 -91 -211 -105 -95 -23 -190 -36
-215 -30 -21 5 -15 14 63 92 160 160 235 247 279 322 24 41 44 78 44 82 0 4
-11 2 -25 -4 -14 -6 -25 -14 -25 -18 0 -4 -21 -21 -47 -38 -27 -17 -61 -44
-78 -59 -45 -42 -161 -134 -235 -185 -202 -142 -339 -188 -558 -188 -290 0
-453 80 -730 357 -52 51 -98 90 -104 87 -6 -4 -14 -1 -18 6 -4 7 -10 8 -13 4
-12 -20 101 -161 255 -318 43 -44 78 -84 78 -89 0 -6 3 -7 6 -4 4 3 25 -9 47
-28 22 -19 44 -35 49 -35 4 0 8 -4 8 -9 0 -5 -55 -10 -122 -10 -105 -1 -129 1
-163 19 -21 11 -48 20 -58 20 -10 0 -32 8 -50 17 -18 9 -36 17 -42 18 -25 3
-97 43 -160 89 -43 32 -205 195 -205 207 0 4 -18 27 -40 51 -22 23 -40 46 -40
50 0 4 -6 13 -12 20 -16 16 -66 82 -97 128 -13 19 -39 51 -58 70 -18 19 -59
70 -90 113 -32 42 -61 77 -65 77 -4 0 -8 5 -8 12 0 6 -8 21 -19 32 -10 12 -44
59 -76 106 -32 47 -61 87 -65 90 -3 3 -10 12 -13 20 -4 8 -18 33 -31 55 -13
22 -39 68 -57 103 -19 34 -37 62 -40 62 -4 0 -10 13 -14 30 -3 16 -24 56 -46
90 -21 33 -39 66 -39 73 0 7 -7 26 -16 42 -88 161 -138 277 -164 375 -5 19
-20 76 -34 125 -14 50 -26 102 -26 118 0 15 -4 27 -9 27 -5 0 -11 19 -14 43
-2 23 -12 78 -23 122 -31 136 -23 432 23 790 25 200 31 334 32 720 1 268 -3
403 -13 485 -18 142 -26 320 -14 320 5 0 6 4 3 10 -6 9 3 51 71 345 62 271
125 422 234 565 89 117 158 175 263 225 227 108 427 143 652 115z m930 -6025
c57 -4 115 -14 134 -23 31 -14 32 -17 16 -28 -10 -7 -37 -16 -61 -20 -53 -8
-184 15 -191 33 -3 7 -15 13 -27 13 -11 0 -28 5 -36 10 -13 9 -13 11 0 20 8 5
26 8 40 6 14 -3 70 -8 125 -11z"/>
<path d="M6580 9665 c0 -9 8 -26 69 -143 12 -24 25 -42 27 -39 7 7 -29 81 -43
90 -7 4 -13 14 -13 22 0 8 -9 29 -20 47 -11 18 -20 29 -20 23z"/>
<path d="M6691 9444 c0 -11 3 -14 6 -6 3 7 2 16 -1 19 -3 4 -6 -2 -5 -13z"/>
<path d="M4870 7214 c-153 -18 -313 -59 -365 -92 -5 -4 -24 -12 -41 -18 -43
-15 -171 -102 -216 -146 -33 -33 -38 -44 -38 -82 0 -77 55 -96 146 -52 146 71
227 100 336 119 278 50 482 20 762 -112 143 -67 194 -66 249 6 47 63 32 136
-40 185 -87 60 -334 149 -487 177 -67 12 -253 21 -306 15z"/>
<path d="M7781 7020 c-138 -18 -301 -63 -512 -142 -147 -55 -201 -123 -164
-202 39 -82 111 -86 274 -17 246 105 369 134 561 133 229 -1 351 -41 523 -171
95 -72 121 -80 153 -50 34 32 33 93 -2 145 -62 92 -179 187 -300 240 -125 55
-368 84 -533 64z"/>
<path d="M5466 6552 c-11 -18 31 -113 65 -147 19 -19 38 -35 43 -35 5 0 25
-17 45 -38 20 -21 59 -50 88 -63 33 -15 52 -30 53 -41 0 -24 27 -23 40 1 24
46 4 127 -44 170 -14 14 -26 28 -26 33 0 15 -34 45 -79 69 -24 13 -53 29 -65
36 -30 16 -112 27 -120 15z"/>
<path d="M7440 6530 c-85 -10 -294 -89 -320 -121 -3 -4 -14 -9 -26 -13 -11 -3
-29 -14 -40 -24 -10 -10 -35 -28 -54 -42 -19 -13 -39 -30 -44 -38 -4 -8 -19
-23 -32 -35 -13 -11 -24 -26 -24 -33 0 -7 -4 -14 -9 -16 -16 -6 -60 -86 -66
-122 -4 -20 -11 -36 -15 -36 -4 0 -10 -24 -13 -52 -20 -176 -38 -311 -42 -318
-12 -19 -6 -179 7 -195 45 -55 88 -95 102 -95 9 0 20 -10 25 -22 7 -18 9 -12
9 27 0 58 39 180 90 280 107 215 253 342 476 413 70 22 99 26 216 26 150 0
202 -11 319 -68 97 -47 150 -86 219 -161 97 -106 172 -279 176 -407 0 -26 3
-43 4 -38 2 6 12 10 21 10 12 0 30 22 51 61 30 58 32 67 27 133 -17 233 -226
449 -507 527 -52 14 -117 22 -213 25 -136 5 -138 6 -167 34 -35 34 -37 49 -10
78 45 48 53 123 18 168 -13 16 -28 34 -34 41 -16 17 -70 22 -144 13z"/>
<path d="M4765 6403 c-181 -24 -382 -136 -479 -264 -87 -115 -117 -211 -90
-293 32 -101 67 -126 78 -57 3 21 27 81 52 132 83 165 235 293 419 352 60 19
92 22 220 22 167 0 224 -13 355 -81 236 -123 396 -376 417 -663 8 -102 21 -82
30 44 7 106 -23 252 -71 348 -20 38 -33 73 -30 78 3 5 -2 9 -10 9 -9 0 -16 9
-16 20 0 11 -6 19 -12 17 -7 -1 -12 6 -12 16 1 9 -3 17 -8 17 -12 0 -47 41
-48 56 0 6 -15 16 -32 22 -18 5 -25 10 -15 11 9 1 17 5 17 11 0 5 -7 7 -15 4
-8 -4 -15 -1 -15 5 0 6 -9 11 -19 11 -11 0 -23 5 -26 10 -4 6 -11 8 -16 5 -5
-4 -9 1 -9 10 0 11 -5 15 -15 11 -9 -3 -24 3 -34 13 -11 11 -35 25 -55 32 -20
7 -36 17 -36 22 0 4 -4 5 -10 2 -5 -3 -10 -1 -10 6 0 7 -3 10 -6 6 -4 -3 -34
4 -68 17 -130 49 -293 68 -431 49z"/>
<path d="M5380 6276 c0 -2 7 -7 16 -10 8 -3 12 -2 9 4 -6 10 -25 14 -25 6z"/>
<path d="M4970 6233 c-179 -31 -322 -153 -371 -314 -18 -59 -21 -88 -17 -169
4 -86 9 -107 41 -173 19 -42 46 -82 59 -90 12 -9 125 -50 250 -92 l227 -77 64
31 c247 118 343 403 216 641 -88 166 -296 273 -469 243z m-38 -183 c78 -61 44
-180 -52 -180 -62 0 -109 43 -110 99 0 24 9 42 34 67 40 40 89 46 128 14z
m395 -510 c26 -23 22 -45 -18 -93 -39 -48 -103 -77 -166 -77 -43 0 -53 3 -58
20 -12 38 6 59 90 105 46 25 87 50 90 55 10 16 40 11 62 -10z"/>
<path d="M7508 6031 c-290 -95 -412 -436 -250 -696 62 -100 187 -185 270 -185
58 0 183 20 202 32 13 8 13 9 0 5 -31 -9 -56 25 -51 70 0 6 27 25 59 41 31 16
79 43 106 60 l49 31 28 -20 c33 -23 34 -30 15 -67 -18 -35 -51 -65 -101 -90
-40 -21 -34 -28 20 -22 27 2 95 56 140 110 122 146 139 367 42 532 -39 66
-129 145 -205 180 -58 27 -81 32 -167 35 -79 2 -112 -1 -157 -16z m7 -153 c59
-27 72 -109 26 -160 -24 -27 -36 -33 -71 -33 -35 0 -47 6 -71 33 -37 41 -38
80 -2 122 40 48 73 59 118 38z"/>
<path d="M7768 5183 c7 -3 16 -2 19 1 4 3 -2 6 -13 5 -11 0 -14 -3 -6 -6z"/>
<path d="M5801 4554 c-11 -14 -23 -46 -26 -72 -3 -26 -8 -55 -9 -64 -6 -27 22
-143 44 -186 46 -88 123 -142 270 -189 110 -35 214 -47 298 -34 86 13 185 44
237 74 50 28 119 128 141 204 24 83 21 188 -6 241 -37 70 -34 74 -72 -103 -14
-64 -49 -133 -85 -167 -38 -36 -144 -83 -221 -98 -145 -29 -314 15 -423 108
-50 43 -73 93 -94 211 -10 50 -21 93 -25 96 -5 3 -18 -6 -29 -21z"/>
<path d="M4986 3899 c-9 -13 -16 -28 -16 -34 1 -17 37 -55 54 -55 9 0 16 -4
16 -10 0 -5 6 -10 14 -10 27 0 46 -30 46 -72 0 -27 14 -69 42 -127 55 -113
136 -251 148 -251 6 0 10 -7 10 -15 0 -8 5 -15 10 -15 6 0 10 -4 10 -10 0 -18
175 -213 196 -218 7 -2 16 -12 19 -23 4 -10 11 -19 16 -19 5 0 19 -9 32 -20
12 -12 31 -29 42 -39 11 -10 48 -39 82 -63 35 -25 60 -48 57 -51 -3 -3 5 -3
18 0 19 4 20 3 8 -7 -12 -9 -10 -11 12 -7 15 2 25 0 22 -5 -3 -4 3 -11 13 -14
10 -3 33 -13 52 -22 19 -9 43 -15 54 -14 10 2 28 -5 40 -15 13 -12 18 -13 12
-3 -7 13 -6 13 7 2 8 -7 24 -9 33 -5 12 4 16 3 12 -4 -6 -10 11 -14 120 -27
17 -2 75 -1 130 3 77 5 97 9 95 20 -3 12 0 12 11 2 8 -6 17 -8 19 -3 1 6 22
12 46 16 23 3 51 10 62 16 14 7 20 7 20 0 0 -5 9 -1 20 10 11 11 26 20 34 20
18 0 176 90 176 101 0 4 8 6 18 2 9 -3 14 -2 10 2 -8 8 51 51 65 47 4 -1 7 2
7 8 0 5 7 10 15 10 8 0 15 4 15 8 0 4 14 16 32 27 36 21 198 180 245 240 57
73 195 288 214 332 12 29 24 43 37 43 11 0 51 7 90 16 64 14 72 19 86 49 21
43 20 67 -1 92 -30 34 -79 53 -136 53 -47 0 -64 -6 -148 -57 l-94 -58 -485 1
c-467 0 -497 2 -810 32 -653 64 -699 70 -772 106 -29 14 -78 28 -109 32 -51 6
-58 4 -73 -17z m890 -228 c217 -31 625 -71 724 -71 90 0 167 -40 102 -53 -163
-32 -509 -33 -712 -2 -184 28 -438 104 -448 133 -8 26 125 23 334 -7z m1165
-488 c-30 -55 -221 -195 -370 -272 -168 -86 -267 -111 -436 -112 -150 -1 -297
32 -410 92 l-40 21 35 -5 c19 -3 67 -12 105 -21 128 -29 295 -40 420 -27 276
28 458 110 612 275 34 36 69 66 78 66 12 0 13 -4 6 -17z"/>
<path d="M3525 6320 c10 -11 20 -20 23 -20 3 0 -3 9 -13 20 -10 11 -20 20 -23
20 -3 0 3 -9 13 -20z"/>
<path d="M9391 5474 c0 -11 3 -14 6 -6 3 7 2 16 -1 19 -3 4 -6 -2 -5 -13z"/>
<path d="M3301 5044 c0 -11 3 -14 6 -6 3 7 2 16 -1 19 -3 4 -6 -2 -5 -13z"/>
</g>
</svg>
