<?xml version="1.0" standalone="no"?>
<!DOCTYPE svg PUBLIC "-//W3C//DTD SVG 20010904//EN"
 "http://www.w3.org/TR/2001/REC-SVG-20010904/DTD/svg10.dtd">
<svg version="1.0" xmlns="http://www.w3.org/2000/svg"
 width="2500.000000pt" height="2500.000000pt" viewBox="0 0 2500.000000 2500.000000"
 preserveAspectRatio="xMidYMid meet">
<metadata>
Created by potrace 1.14, written by Peter Selinger 2001-2017
</metadata>
<g transform="translate(0.000000,2500.000000) scale(0.100000,-0.100000)"
fill="#000000" stroke="none">
<path d="M12010 22750 c-757 -47 -1485 -184 -2150 -407 -438 -147 -885 -352
-1150 -528 -457 -304 -882 -870 -1230 -1640 -74 -163 -89 -188 -163 -275 -636
-742 -1137 -1599 -1395 -2390 -200 -613 -214 -1068 -41 -1412 68 -135 201
-285 320 -358 l55 -34 1 -130 c1 -72 6 -160 12 -196 10 -61 9 -69 -20 -144
-17 -44 -39 -118 -49 -164 -19 -87 -29 -102 -67 -102 -36 0 -115 -30 -151 -57
-18 -13 -42 -43 -55 -66 -25 -48 -26 -104 -10 -453 7 -145 13 -197 25 -215 11
-17 23 -95 39 -253 27 -273 28 -267 -82 -526 -113 -265 -157 -452 -204 -879
-14 -124 -32 -277 -41 -339 -9 -62 -14 -116 -11 -119 3 -3 22 27 41 65 33 66
52 90 62 80 2 -3 9 -62 14 -132 6 -70 18 -162 26 -204 8 -43 18 -156 23 -252
9 -210 17 -233 116 -335 55 -57 78 -91 121 -182 29 -61 58 -114 63 -117 16
-10 31 28 38 95 4 43 8 56 14 43 21 -58 121 -513 200 -909 130 -654 175 -813
264 -935 86 -116 177 -159 353 -168 l112 -5 0 -26 c0 -60 22 -306 40 -456 64
-510 227 -1046 463 -1523 l63 -127 -37 -1165 c-21 -641 -38 -1184 -38 -1207
l-1 -42 1882 -1756 c1034 -966 1885 -1754 1889 -1753 5 2 1073 781 2374 1733
l2365 1730 0 1105 0 1105 76 105 c365 505 674 1179 839 1830 26 102 48 186 49
187 1 1 38 -10 81 -24 66 -21 99 -26 190 -26 95 -1 121 3 190 27 44 15 106 43
138 63 166 101 321 306 428 569 72 178 67 162 354 1259 218 831 286 1202 286
1550 0 439 -141 842 -323 922 l-38 17 1 331 c1 361 -2 390 -67 742 -55 300
-64 390 -46 478 13 68 19 78 72 133 391 401 516 1103 360 2008 -113 651 -386
1410 -742 2064 -57 107 -66 132 -119 340 -263 1039 -716 1792 -1418 2356 -485
390 -1073 659 -1888 863 -431 108 -856 176 -1378 221 -166 15 -935 21 -1125
10z m50 -3730 c831 -46 1807 -199 2775 -435 119 -29 178 -59 450 -223 779
-471 1369 -995 1716 -1522 90 -136 228 -415 273 -555 75 -226 168 -766 210
-1220 7 -77 13 -140 12 -141 0 0 -145 14 -321 32 -176 18 -333 33 -348 34 -27
0 -28 1 -21 48 13 104 -36 487 -82 632 -61 193 -187 316 -424 413 -238 98
-682 213 -1305 339 -426 86 -458 91 -605 95 -179 6 -292 -12 -420 -66 -121
-50 -176 -94 -407 -321 -344 -339 -644 -600 -1134 -985 -140 -109 -291 -230
-335 -267 l-81 -68 -174 0 c-314 0 -461 24 -1189 195 -438 103 -668 145 -955
176 -241 26 -967 10 -1604 -36 -260 -19 -257 -19 -241 0 29 35 278 165 491
255 341 146 512 188 1069 259 315 41 400 48 780 66 523 24 629 47 660 140 10
29 8 42 -12 93 -88 215 -205 332 -378 372 -116 28 -414 6 -1060 -75 -397 -50
-516 -71 -705 -120 -313 -81 -532 -195 -714 -370 -126 -122 -192 -225 -284
-444 -41 -97 -77 -183 -80 -192 -3 -10 -21 -19 -49 -22 -91 -13 -339 -29 -345
-24 -14 14 129 530 243 880 312 953 694 1721 1114 2237 108 133 121 144 245
212 637 350 1397 552 2280 607 193 12 743 12 955 1z m3962 -3674 c247 -35 314
-63 429 -184 46 -48 91 -101 101 -117 l16 -30 -251 22 c-139 12 -387 31 -552
43 -236 17 -336 29 -470 55 -93 19 -325 61 -515 94 -190 33 -356 64 -370 69
-22 8 -17 10 35 16 81 8 463 35 660 46 236 13 787 5 917 -14z m-4094 -1595
c65 -50 137 -110 159 -135 106 -120 171 -326 239 -746 44 -279 84 -416 234
-822 148 -395 169 -524 106 -652 -35 -70 -85 -113 -205 -175 -277 -141 -616
-219 -839 -192 -167 21 -271 65 -379 164 -32 29 -81 70 -110 90 -83 60 -109
96 -129 180 -16 70 -16 82 -1 203 9 71 30 199 46 284 39 202 77 478 91 660 12
143 13 147 71 285 32 77 90 223 129 325 122 317 196 447 303 531 45 36 139 89
158 89 4 0 61 -40 127 -89z m1278 -1690 c43 -58 134 -163 203 -234 421 -434
933 -687 1608 -792 604 -95 1164 -23 1625 206 112 56 208 113 285 171 30 22
56 38 57 36 2 -1 -28 -120 -66 -263 -216 -818 -360 -1415 -447 -1855 -50 -256
-58 -308 -106 -650 -90 -642 -254 -1052 -634 -1590 -207 -293 -377 -490 -871
-1010 -704 -740 -1045 -1053 -1425 -1306 -327 -217 -654 -363 -1034 -460
l-136 -34 -690 6 c-379 3 -738 9 -797 14 -104 8 -111 10 -205 61 -54 29 -141
78 -193 109 -52 31 -103 59 -112 63 -27 10 -223 143 -333 226 -336 252 -657
577 -881 892 -191 268 -266 414 -600 1164 -554 1245 -696 1618 -798 2099 -85
399 -113 726 -141 1651 -8 270 -18 532 -21 583 -4 50 -4 92 0 92 4 0 51 -16
106 -35 123 -42 311 -89 450 -110 141 -23 540 -31 697 -16 423 43 778 139
1108 301 227 111 365 204 605 407 l44 38 -21 -35 c-177 -298 -305 -590 -333
-761 -52 -324 102 -622 395 -764 117 -57 187 -75 315 -82 108 -5 154 2 378 62
61 16 66 16 125 -3 34 -11 101 -37 149 -57 246 -102 458 -84 689 56 143 87
193 96 294 53 129 -55 247 -71 390 -55 261 31 460 132 560 287 75 115 115 261
115 422 0 222 -49 381 -239 772 -131 268 -211 443 -211 457 0 10 11 -4 96
-116z m-4986 -5971 c107 -163 196 -311 245 -410 259 -519 560 -1011 810 -1326
227 -285 535 -569 840 -773 231 -155 428 -254 655 -331 434 -145 905 -157
1395 -34 177 44 556 162 908 280 575 195 582 197 562 165 -3 -6 -124 -89 -268
-185 -367 -243 -872 -601 -1654 -1173 -183 -134 -335 -243 -338 -243 -2 0
-334 260 -737 578 -403 318 -739 582 -747 587 -10 5 -8 -4 6 -26 11 -19 148
-250 303 -514 155 -264 302 -514 327 -555 40 -66 42 -72 17 -49 -16 14 -641
597 -1389 1295 l-1360 1269 2 65 c1 36 14 484 29 996 l28 931 99 -146 c55 -80
175 -261 267 -401z"/>
<path d="M12190 8676 c-36 -7 -134 -28 -218 -45 -181 -39 -230 -38 -457 4
-114 22 -180 29 -275 29 -201 0 -340 -36 -719 -184 -276 -108 -519 -164 -975
-225 -105 -14 -192 -27 -194 -30 -14 -14 21 -38 154 -105 199 -101 326 -177
599 -361 127 -85 260 -169 297 -187 266 -130 573 -172 1258 -172 832 0 1253
94 1771 393 140 81 258 138 406 196 193 77 197 95 31 125 -130 24 -241 68
-539 216 -304 150 -438 208 -645 279 -240 82 -342 96 -494 67z"/>
</g>
</svg>
